<svg xmlns="http://www.w3.org/2000/svg" xmlns:xlink="http://www.w3.org/1999/xlink" width="48" zoomAndPan="magnify" viewBox="0 0 36 36.000001" height="48" preserveAspectRatio="xMidYMid meet" version="1.0"><defs><clipPath id="897cdf2d65"><path d="M 1.585938 1.097656 L 34.414062 1.097656 L 34.414062 33.929688 L 1.585938 33.929688 Z M 1.585938 1.097656 " clip-rule="nonzero"/></clipPath><clipPath id="1d1a93898e"><path d="M 18 1.097656 C 8.933594 1.097656 1.585938 8.449219 1.585938 17.511719 C 1.585938 26.578125 8.933594 33.929688 18 33.929688 C 27.066406 33.929688 34.414062 26.578125 34.414062 17.511719 C 34.414062 8.449219 27.066406 1.097656 18 1.097656 Z M 18 1.097656 " clip-rule="nonzero"/></clipPath><clipPath id="3c364d6a0d"><path d="M 0.585938 0.0976562 L 33.414062 0.0976562 L 33.414062 32.929688 L 0.585938 32.929688 Z M 0.585938 0.0976562 " clip-rule="nonzero"/></clipPath><clipPath id="dbac993f34"><path d="M 17 0.0976562 C 7.933594 0.0976562 0.585938 7.449219 0.585938 16.511719 C 0.585938 25.578125 7.933594 32.929688 17 32.929688 C 26.066406 32.929688 33.414062 25.578125 33.414062 16.511719 C 33.414062 7.449219 26.066406 0.0976562 17 0.0976562 Z M 17 0.0976562 " clip-rule="nonzero"/></clipPath><clipPath id="aafcfdebcb"><rect x="0" width="34" y="0" height="33"/></clipPath><clipPath id="08dbc5651f"><path d="M 5.671875 5.183594 L 30.328125 5.183594 L 30.328125 29.839844 L 5.671875 29.839844 Z M 5.671875 5.183594 " clip-rule="nonzero"/></clipPath><clipPath id="430f9d2c12"><path d="M 18 5.183594 C 11.191406 5.183594 5.671875 10.703125 5.671875 17.511719 C 5.671875 24.320312 11.191406 29.839844 18 29.839844 C 24.808594 29.839844 30.328125 24.320312 30.328125 17.511719 C 30.328125 10.703125 24.808594 5.183594 18 5.183594 Z M 18 5.183594 " clip-rule="nonzero"/></clipPath><clipPath id="c1f15301bf"><path d="M 0.671875 0.183594 L 25.328125 0.183594 L 25.328125 24.839844 L 0.671875 24.839844 Z M 0.671875 0.183594 " clip-rule="nonzero"/></clipPath><clipPath id="377731ac01"><path d="M 13 0.183594 C 6.191406 0.183594 0.671875 5.703125 0.671875 12.511719 C 0.671875 19.320312 6.191406 24.839844 13 24.839844 C 19.808594 24.839844 25.328125 19.320312 25.328125 12.511719 C 25.328125 5.703125 19.808594 0.183594 13 0.183594 Z M 13 0.183594 " clip-rule="nonzero"/></clipPath><clipPath id="aa18a34ecf"><rect x="0" width="26" y="0" height="25"/></clipPath><clipPath id="7152681943"><path d="M 8.527344 8.042969 L 27.472656 8.042969 L 27.472656 26.984375 L 8.527344 26.984375 Z M 8.527344 8.042969 " clip-rule="nonzero"/></clipPath><clipPath id="b8f7cd5f46"><path d="M 23.46875 9.613281 L 21.789062 13.726562 L 25.898438 12.007812 L 27.472656 15.796875 L 23.359375 17.511719 L 27.472656 19.230469 L 25.898438 23.015625 L 21.789062 21.300781 L 23.46875 25.410156 L 19.679688 26.984375 L 18 22.875 L 16.285156 26.984375 L 12.496094 25.410156 L 14.210938 21.300781 L 10.101562 23.015625 L 8.527344 19.230469 L 12.640625 17.511719 L 8.527344 15.796875 L 10.101562 12.007812 L 14.210938 13.726562 L 12.496094 9.613281 L 16.285156 8.042969 L 18 12.152344 L 19.679688 8.042969 Z M 23.46875 9.613281 " clip-rule="nonzero"/></clipPath><clipPath id="e74508d88f"><path d="M 0.527344 0.0429688 L 19.472656 0.0429688 L 19.472656 18.984375 L 0.527344 18.984375 Z M 0.527344 0.0429688 " clip-rule="nonzero"/></clipPath><clipPath id="4d4cfbfbba"><path d="M 15.46875 1.613281 L 13.789062 5.726562 L 17.898438 4.007812 L 19.472656 7.796875 L 15.359375 9.511719 L 19.472656 11.230469 L 17.898438 15.015625 L 13.789062 13.300781 L 15.46875 17.410156 L 11.679688 18.984375 L 10 14.875 L 8.285156 18.984375 L 4.496094 17.410156 L 6.210938 13.300781 L 2.101562 15.015625 L 0.527344 11.230469 L 4.640625 9.511719 L 0.527344 7.796875 L 2.101562 4.007812 L 6.210938 5.726562 L 4.496094 1.613281 L 8.285156 0.0429688 L 10 4.152344 L 11.679688 0.0429688 Z M 15.46875 1.613281 " clip-rule="nonzero"/></clipPath><clipPath id="5a57807ce0"><rect x="0" width="20" y="0" height="19"/></clipPath></defs><g clip-path="url(#897cdf2d65)"><g clip-path="url(#1d1a93898e)"><g transform="matrix(1, 0, 0, 1, 1, 1)"><g clip-path="url(#aafcfdebcb)"><g clip-path="url(#3c364d6a0d)"><g clip-path="url(#dbac993f34)"><path fill="#030b29" d="M 0.585938 0.0976562 L 33.414062 0.0976562 L 33.414062 32.929688 L 0.585938 32.929688 Z M 0.585938 0.0976562 " fill-opacity="1" fill-rule="nonzero"/></g></g></g></g></g></g><g clip-path="url(#08dbc5651f)"><g clip-path="url(#430f9d2c12)"><g transform="matrix(1, 0, 0, 1, 5, 5)"><g clip-path="url(#aa18a34ecf)"><g clip-path="url(#c1f15301bf)"><g clip-path="url(#377731ac01)"><path fill="#f2f2f2" d="M 0.671875 0.183594 L 25.328125 0.183594 L 25.328125 24.839844 L 0.671875 24.839844 Z M 0.671875 0.183594 " fill-opacity="1" fill-rule="nonzero"/></g></g></g></g></g></g><g clip-path="url(#7152681943)"><g clip-path="url(#b8f7cd5f46)"><g transform="matrix(1, 0, 0, 1, 8, 8)"><g clip-path="url(#5a57807ce0)"><g clip-path="url(#e74508d88f)"><g clip-path="url(#4d4cfbfbba)"><path fill="#030b29" d="M 0.527344 0.0429688 L 19.472656 0.0429688 L 19.472656 18.984375 L 0.527344 18.984375 Z M 0.527344 0.0429688 " fill-opacity="1" fill-rule="nonzero"/></g></g></g></g></g></g></svg>